<!DOCTYPE svg PUBLIC "-//W3C//DTD SVG 1.1//EN" "http://www.w3.org/Graphics/SVG/1.1/DTD/svg11.dtd">
<!-- Uploaded to: SVG Repo, www.svgrepo.com, Transformed by: SVG Repo Mixer Tools -->
<svg version="1.1" id="Icons" xmlns="http://www.w3.org/2000/svg" xmlns:xlink="http://www.w3.org/1999/xlink" viewBox="0 0 32.00 32.00" xml:space="preserve" width="115px" height="115px" fill="#e1a8df" stroke="#e1a8df">
<g id="SVGRepo_bgCarrier" stroke-width="0"/>
<g id="SVGRepo_tracerCarrier" stroke-linecap="round" stroke-linejoin="round"/>
<g id="SVGRepo_iconCarrier"> <style type="text/css"> .st0{fill:none;stroke:#ca72c7;stroke-width:0.9279999999999999;stroke-linejoin:round;stroke-miterlimit:10;} .st1{fill:none;stroke:#ca72c7;stroke-width:0.9279999999999999;stroke-linecap:round;stroke-linejoin:round;stroke-miterlimit:10;} .st2{fill:none;stroke:#ca72c7;stroke-width:0.9279999999999999;stroke-miterlimit:10;} </style> <polyline class="st0" points="12,25 4,25 4,7 28,7 28,13 "/> <polyline class="st0" points="8,11 16,18 24,11 "/> <line class="st0" x1="13.7" y1="16" x2="8" y2="21"/> <path class="st1" d="M28.2,19.8c-1-1-2.7-1-3.7,0L23,21.4l-1.5-1.6c-1-1-2.7-1-3.7,0c-1,1-1,2.8,0,3.8l1.5,1.6L23,29l3.7-3.8 l1.5-1.6C29.2,22.6,29.2,20.8,28.2,19.8z"/> </g>
</svg>