<?xml version="1.0" encoding="iso-8859-1"?>
<!-- Uploaded to: SVG Repo, www.svgrepo.com, Generator: SVG Repo Mixer Tools -->
<svg height="800px" width="800px" version="1.1" id="Layer_1" xmlns="http://www.w3.org/2000/svg" xmlns:xlink="http://www.w3.org/1999/xlink" 
	 viewBox="0 0 512 512" xml:space="preserve">
<path style="fill:#BBD7D8;" d="M512,175.914v279.428c0,18.462-15.015,33.478-33.478,33.478H33.478
	C15.015,488.82,0,473.804,0,455.342V175.914c0-18.462,15.015-33.478,33.478-33.478h445.044C496.985,142.436,512,157.451,512,175.914
	z"/>
<path style="fill:#B1CCCD;" d="M512,175.914v279.428c0,18.462-15.015,33.478-33.478,33.478H254.965V142.436h223.558
	C496.985,142.436,512,157.451,512,175.914z"/>
<path style="fill:#F5888E;" d="M336.752,369.837l-68.134,68.121c-3.621,3.633-8.382,5.456-13.143,5.456
	c-0.174,0-0.335,0-0.508-0.012c-2.207-0.05-4.414-0.508-6.497-1.352c-2.232-0.918-4.34-2.281-6.15-4.092l-67.873-67.861
	c-9.882-9.25-15.4-23.682-15.152-39.69c0.248-15.586,5.84-29.324,15.375-37.842c21.215-20.719,55.325-20.57,76.342,0.459
	l4.464,4.464l4.451-4.464c21.178-21.178,55.648-21.178,76.825,0C357.918,314.202,357.918,348.659,336.752,369.837z"/>
<path style="fill:#F76976;" d="M336.752,369.837l-68.134,68.121c-3.621,3.633-8.382,5.456-13.143,5.456
	c-0.174,0-0.335,0-0.508-0.012V296.979l0.508,0.508l4.451-4.464c21.178-21.178,55.648-21.178,76.825,0
	C357.918,314.202,357.918,348.659,336.752,369.837z"/>
<path style="fill:#BBD7D8;" d="M27.451,180.928c-6.584,0-12.963-3.503-16.341-9.689c-4.922-9.015-1.604-20.315,7.411-25.237
	L227.455,31.923c9.017-4.921,20.314-1.606,25.237,7.411c4.922,9.015,1.604,20.315-7.411,25.237L36.347,178.649
	C33.518,180.194,30.462,180.928,27.451,180.928z"/>
<path style="fill:#B1CCCD;" d="M486.815,182.168c-3.012,0-6.067-0.733-8.896-2.279L268.983,65.81
	c-9.015-4.922-12.333-16.221-7.411-25.237c4.922-9.014,16.219-12.335,25.237-7.411L495.745,147.24
	c9.015,4.922,12.333,16.221,7.411,25.237C499.778,178.663,493.399,182.168,486.815,182.168z"/>
<path style="fill:#477777;" d="M305.907,74.116c0,28.01-22.728,50.812-50.7,50.936h-0.236c-28.084,0-50.936-22.852-50.936-50.936
	s22.852-50.936,50.936-50.936h0.236C283.179,23.304,305.907,46.106,305.907,74.116z"/>
<path style="fill:#437171;" d="M305.907,74.116c0,28.01-22.728,50.812-50.7,50.936V23.18
	C283.179,23.304,305.907,46.106,305.907,74.116z"/>
<path style="fill:#E8ECED;" d="M512,175.914v81.512H0v-81.512c0-18.462,15.015-33.478,33.478-33.478h445.044
	C496.985,142.436,512,157.451,512,175.914z"/>
<path style="fill:#DBDDDD;" d="M512,175.914v81.512H254.965v-114.99h223.558C496.985,142.436,512,157.451,512,175.914z"/>
</svg>